<svg xmlns="http://www.w3.org/2000/svg" height="40" viewBox="0 -960 960 960" width="40"><path d="M790.478-119.971q-117.124 0-237.142-55.268-120.017-55.268-220.887-156.931Q230.746-433 175.398-552.958q-55.347-119.958-55.347-237.474 0-21.052 14.248-35.404 14.249-14.353 35.462-14.353h142.586q18.544 0 30.932 11.131 12.387 11.13 16.844 29.855l26.539 123.536q2.352 16.515-1.155 29.996-3.507 13.482-13.391 22.974l-98.131 96.922q23.21 39.514 50.126 74.355 26.915 34.84 59.889 66.848 33.297 34.456 69.721 62.737 36.424 28.281 76.381 50.422l96.717-97.463q11.131-11.747 24.971-15.892t28.754-1.355l117.9 25.241q18.984 4.817 30.364 18.613 11.381 13.796 11.381 32.327v140.181q0 21.339-14.334 35.564-14.334 14.226-35.377 14.226Zm-552.37-471.884 75.762-74.834-21.182-100.92h-98.986q2.015 39.485 12.4 82.783 10.384 43.298 32.006 92.971Zm359.465 355.703q38.224 17.776 82.679 28.87 44.455 11.094 87.357 13.746v-99.602l-94.681-20.384-75.355 77.37ZM238.108-591.855Zm359.465 355.703Z"/></svg>